# Blender v2.69 (sub 0) OBJ File: ''
# www.blender.org
o Cube.001
v -0.250396 -0.368093 1.000000
v -1.019992 -0.368093 1.000000
v -0.250396 -0.368093 -1.000000
v -0.250397 0.368093 1.000000
v -0.250396 0.368093 -1.000000
v -1.019993 0.368093 0.999999
v -1.019992 -0.368093 -1.000000
v -1.019992 0.368093 -1.000000
v -0.025563 -0.080430 0.218507
v -0.025563 -0.080430 -0.218507
v -0.025563 0.080432 0.218507
v -0.025563 0.080432 -0.218507
v -0.025563 -0.080430 0.218507
v -0.025563 -0.080430 -0.218507
v -0.025563 0.080432 0.218507
v -0.025563 0.080432 -0.218507
v 0.277171 -0.027132 0.073714
v 0.277171 -0.027132 -0.073713
v 0.277171 0.027135 0.073714
v 0.277171 0.027135 -0.073713
v -0.025563 0.080432 0.218507
v -0.025563 0.080432 -0.218507
v 0.277171 0.027135 0.073714
v 0.277171 0.027135 -0.073713
v 1.252527 -0.027132 0.073714
v 1.252527 -0.027132 -0.073713
v 1.252527 0.027135 0.073714
v 1.252527 0.027135 -0.073713
v 1.286181 -0.007673 0.020850
v 1.286181 -0.007673 -0.020849
v 1.286181 0.007676 0.020850
v 1.286181 0.007676 -0.020849
vt 0.705098 0.000000
vt 0.705098 0.268739
vt 0.000000 0.000000
vt 0.000000 0.973837
vt 0.000000 0.268739
vt 0.268739 0.973837
vt 1.000000 0.973837
vt 1.000000 1.233379
vt 0.730323 0.973837
vt 0.528281 0.973837
vt 0.528281 0.268739
vt 0.705098 0.964640
vt 0.705098 0.705099
vt 0.974775 0.964640
vt 0.964640 0.000000
vt 0.964640 0.705098
vt 0.863225 0.275515
vt 0.268739 0.268739
vt 0.730323 1.233379
vt 0.974775 0.705098
vt 0.705099 0.705098
vt 0.806513 0.275515
vt 0.863225 0.429584
vt 0.268739 1.127906
vt 0.377038 1.076860
vt 0.377038 1.024884
vt 0.717627 1.076860
vt 0.580256 0.622024
vt 0.528281 0.622024
vt 0.580256 0.281435
vt 0.730323 1.127906
vt 0.730323 1.184618
vt 0.618631 1.165828
vt 0.730323 1.241330
vt 0.618631 1.203408
vt 0.688555 0.268739
vt 0.688555 0.422808
vt 0.580256 0.319786
vt 0.717627 1.024884
vt 0.730323 1.058222
vt 0.528281 0.281435
vt 0.561619 0.268739
vt 0.618631 1.146697
vt 0.276853 1.146697
vt 0.618631 1.222540
vt 0.276853 1.203408
vt 0.592528 0.456146
vt 0.587116 0.456146
vt 0.592528 0.441445
vt 0.587116 0.441445
vt 0.580256 0.422808
vt 0.599388 0.422808
vt 0.599388 0.474783
vt 0.580256 0.474783
vt 0.806513 0.429584
vt 0.580256 0.371761
vt 0.730323 1.043522
vt 0.546918 0.268739
vt 0.276853 1.165828
vt 0.276853 1.222540
vn 0.498886 -0.601062 0.624317
vn -0.577349 -0.577349 0.577349
vn 0.498886 -0.601062 -0.624317
vn 0.498886 0.601062 0.624317
vn 0.498886 0.601062 -0.624317
vn -0.577349 0.577349 0.577349
vn -0.577349 -0.577349 -0.577349
vn -0.577349 0.577349 -0.577349
vn 0.701498 -0.294504 0.648946
vn 0.701468 0.294473 0.648976
vn 0.788018 -0.330821 0.519181
vn 0.174169 -0.240669 0.954833
vn 0.788049 0.330821 0.519120
vn 0.120853 0.000000 0.992645
vn 0.347606 -0.480331 0.805231
vn 0.225227 -0.730918 0.644185
vn 0.080386 0.000000 0.996734
vn 0.114566 0.241340 0.963652
vn 0.058687 0.333415 0.940916
vn 0.225227 -0.730918 -0.644185
vn 0.409497 -0.625172 0.664388
vn 0.428846 0.903348 0.006684
vn 0.409497 0.625172 -0.664388
vn 0.093448 0.530961 0.842219
vn 0.409497 -0.625172 -0.664388
vn 0.878750 -0.433058 0.200537
vn 0.409497 0.625172 0.664388
vn 0.878750 0.433058 -0.200537
vn 0.878750 0.433058 0.200537
vn 0.878750 -0.433058 -0.200537
s 1
f 1/1/1 2/2/2 3/3/3
f 4/4/4 5/5/5 6/6/6
f 1/7/1 4/8/4 2/9/2
f 2/10/2 6/6/6 7/11/7
f 7/12/7 8/13/8 3/14/3
f 1/15/1 3/16/3 9/17/9
f 2/2/2 7/5/7 3/3/3
f 5/5/5 8/18/8 6/6/6
f 4/8/4 6/19/6 2/9/2
f 6/6/6 8/18/8 7/11/7
f 8/13/8 5/20/5 3/14/3
f 5/21/5 4/1/4 11/22/10
f 9/3/9 10/3/11 13/3/12
f 12/3/13 11/3/10 16/3/14
f 3/16/3 5/21/5 10/23/11
f 4/1/4 1/15/1 11/22/10
f 13/24/12 14/6/15 17/25/16
f 15/3/17 19/3/18 21/3/19
f 10/3/11 12/3/13 14/3/15
f 11/3/10 9/3/9 15/3/17
f 17/25/16 18/26/20 25/27/21
f 20/28/22 19/29/18 28/30/23
f 14/31/15 16/32/14 20/33/22
f 15/32/17 13/34/12 19/35/18
f 22/36/19 21/37/19 24/38/24
f 19/3/18 20/3/22 23/3/24
f 16/3/14 15/3/17 22/3/19
f 20/3/22 16/3/14 24/3/24
f 25/27/21 26/39/25 29/40/26
f 28/30/23 27/41/27 32/42/28
f 18/43/20 20/33/22 26/44/25
f 19/35/18 17/45/16 27/46/27
f 31/47/29 29/48/26 32/49/28
f 29/48/26 30/50/30 32/49/28
f 26/51/25 28/52/23 30/50/30
f 27/53/27 25/54/21 31/47/29
f 3/16/3 10/23/11 9/17/9
f 12/55/13 5/21/5 11/22/10
f 10/3/11 14/3/15 13/3/12
f 11/3/10 15/3/17 16/3/14
f 5/21/5 12/55/13 10/23/11
f 1/15/1 9/17/9 11/22/10
f 14/6/15 18/26/20 17/25/16
f 19/3/18 23/3/24 21/3/19
f 12/3/13 16/3/14 14/3/15
f 9/3/9 13/3/12 15/3/17
f 18/26/20 26/39/25 25/27/21
f 19/29/18 27/41/27 28/30/23
f 18/43/20 14/31/15 20/33/22
f 13/34/12 17/45/16 19/35/18
f 21/37/19 23/56/24 24/38/24
f 20/3/22 24/3/24 23/3/24
f 15/3/17 21/3/19 22/3/19
f 16/3/14 22/3/19 24/3/24
f 26/39/25 30/57/30 29/40/26
f 27/41/27 31/58/29 32/42/28
f 20/33/22 28/59/23 26/44/25
f 17/45/16 25/60/21 27/46/27
f 28/52/23 32/49/28 30/50/30
f 25/54/21 29/48/26 31/47/29
